<?xml version="1.0" standalone="no"?>
<!DOCTYPE svg PUBLIC "-//W3C//DTD SVG 20010904//EN"
 "http://www.w3.org/TR/2001/REC-SVG-20010904/DTD/svg10.dtd">
<svg version="1.0" xmlns="http://www.w3.org/2000/svg"
 width="1024.000000pt" height="1024.000000pt" viewBox="0 0 1024.000000 1024.000000"
 preserveAspectRatio="xMidYMid meet">
<metadata>
Created by potrace 1.11, written by Peter Selinger 2001-2013
</metadata>
<g transform="translate(0.000000,1024.000000) scale(0.100000,-0.100000)"
fill="#000000" stroke="none">
<path d="M4900 8784 c-672 -59 -1207 -241 -1730 -589 -217 -144 -349 -253
-541 -444 -191 -192 -300 -324 -444 -541 -320 -481 -500 -976 -576 -1585 -17
-130 -17 -560 0 -690 76 -609 256 -1104 576 -1585 144 -217 253 -349 444 -541
192 -191 324 -300 541 -444 376 -250 774 -419 1210 -514 263 -57 435 -75 720
-75 236 0 337 7 535 40 602 98 1179 355 1660 740 141 113 416 388 529 529 385
481 642 1058 740 1660 33 198 40 299 40 535 0 236 -7 337 -40 535 -98 602
-355 1179 -740 1660 -113 141 -388 416 -529 529 -523 418 -1130 674 -1808 762
-109 14 -497 26 -587 18z m1830 -991 c0 -7 -11 -13 -25 -13 -32 0 -67 -35 -63
-63 2 -16 12 -23 43 -28 84 -15 151 -56 186 -113 24 -39 25 -115 3 -162 -32
-66 -138 -134 -211 -134 -18 0 -23 -6 -23 -25 0 -14 9 -34 20 -45 11 -11 31
-20 45 -20 14 0 25 -6 25 -12 0 -10 -33 -13 -130 -13 -99 -1 -130 2 -130 12 0
7 12 13 27 13 35 0 63 27 63 60 0 25 -4 28 -51 33 -174 21 -259 199 -152 318
44 48 97 77 158 86 41 5 45 8 45 34 0 32 -31 59 -67 59 -13 0 -23 6 -23 13 0
9 33 12 130 12 97 0 130 -3 130 -12z m-1650 -1844 c121 -5 252 -55 324 -123
17 -17 35 -29 39 -28 5 1 6 -1 3 -6 -2 -4 12 -26 32 -48 20 -22 38 -49 40 -60
2 -10 9 -23 15 -29 7 -5 12 -14 12 -20 0 -5 9 -37 19 -70 17 -57 25 -173 13
-205 -3 -8 -5 -22 -6 -30 0 -24 -6 -42 -31 -95 -13 -27 -24 -52 -24 -55 -5
-25 -141 -172 -150 -162 -4 3 -6 1 -6 -5 0 -6 -13 -16 -30 -23 -16 -7 -30 -16
-30 -21 0 -5 -3 -8 -7 -7 -5 1 -28 -4 -53 -11 -25 -7 -47 -13 -50 -13 -3 0
-16 -5 -30 -10 -30 -12 -160 -16 -160 -5 0 4 -13 7 -28 7 -35 0 -122 28 -143
46 -8 8 -20 14 -25 14 -6 0 -29 16 -51 35 -23 19 -46 35 -52 35 -6 0 -11 6
-11 14 0 8 -7 16 -15 19 -26 10 -112 193 -121 257 -8 54 -10 140 -3 140 3 0 5
16 4 35 0 19 3 35 7 35 4 0 8 7 8 16 0 21 41 116 57 132 7 8 10 18 7 24 -4 7
-2 8 4 4 7 -4 12 -3 12 2 0 16 92 106 135 132 22 13 43 28 46 33 3 5 9 8 13 7
4 -1 19 3 34 8 29 11 102 26 115 24 4 -1 7 3 7 9 0 5 3 8 8 5 4 -2 37 -6 72
-7z m-2670 -656 c0 -7 -10 -13 -23 -13 -12 0 -33 -7 -45 -16 -21 -14 -22 -21
-22 -165 0 -144 1 -149 20 -149 62 0 119 72 120 150 1 97 36 163 92 175 36 8
61 -10 29 -20 -31 -9 -43 -40 -52 -127 -13 -133 -57 -189 -159 -203 l-50 -7 0
-98 c0 -91 2 -100 22 -114 12 -9 33 -16 45 -16 13 0 23 -6 23 -13 0 -9 -33
-12 -130 -12 -97 0 -130 3 -130 13 0 6 11 12 25 12 50 0 65 30 65 134 l0 93
-45 6 c-62 9 -116 39 -138 76 -11 18 -22 67 -27 115 -9 92 -19 117 -52 140
-19 13 -19 16 -5 22 27 10 71 -11 94 -45 14 -20 24 -55 28 -99 12 -117 56
-182 125 -182 19 0 20 5 20 145 0 132 -2 147 -20 165 -11 11 -31 20 -45 20
-14 0 -25 6 -25 13 0 9 33 12 130 12 97 0 130 -3 130 -12z m4481 -1859 c105
-33 174 -134 173 -254 -1 -36 -8 -81 -16 -101 -23 -53 -82 -114 -134 -140 -39
-18 -45 -25 -42 -48 3 -24 7 -26 53 -29 78 -5 114 5 121 33 3 14 10 25 15 25
10 0 12 -44 3 -89 l-7 -32 -101 3 -101 3 -3 63 -3 64 45 39 c64 56 87 110 87
203 0 81 -22 149 -64 195 -32 34 -95 61 -147 61 -126 0 -210 -104 -210 -259 0
-83 25 -141 84 -195 42 -39 44 -44 48 -106 l3 -65 -112 -3 -113 -3 0 61 c0 57
15 84 22 38 4 -27 31 -36 116 -37 l62 -1 0 29 c0 25 -7 33 -45 51 -125 61
-182 218 -126 346 64 143 220 202 392 148z"/>
<path d="M6485 7656 c-70 -30 -106 -113 -91 -208 10 -60 40 -103 90 -127 79
-39 76 -45 76 164 l0 185 -22 0 c-13 -1 -37 -7 -53 -14z"/>
<path d="M6640 7485 l0 -185 23 0 c42 0 111 43 129 80 25 50 24 151 -3 206
-21 45 -81 84 -127 84 -22 0 -22 -1 -22 -185z"/>
</g>
</svg>
